<svg width="1106" height="156" viewBox="0 0 1106 156" fill="none" xmlns="http://www.w3.org/2000/svg">
  <path d="M185.607 126.487C186.102 126.74 186.862 126.994 187.645 126.994C188.49 126.994 188.937 126.645 188.937 126.114C188.937 125.606 188.55 125.318 187.574 124.967C186.222 124.494 185.342 123.749 185.342 122.566C185.342 121.177 186.501 120.116 188.418 120.116C189.335 120.116 190.011 120.309 190.493 120.528L190.083 122.011C189.757 121.854 189.178 121.624 188.382 121.624C187.585 121.624 187.2 121.988 187.2 122.407C187.2 122.927 187.658 123.156 188.708 123.555C190.144 124.086 190.82 124.833 190.82 125.978C190.82 127.343 189.77 128.514 187.537 128.514C186.608 128.514 185.691 128.262 185.233 128.007L185.607 126.487ZM197.02 126.945C197.02 127.513 197.045 128.055 197.104 128.38H195.452L195.344 127.789H195.307C194.921 128.262 194.318 128.513 193.618 128.513C192.424 128.513 191.712 127.646 191.712 126.704C191.712 125.173 193.087 124.436 195.174 124.448V124.363C195.174 124.05 195.005 123.604 194.101 123.604C193.496 123.604 192.858 123.809 192.472 124.05L192.134 122.868C192.544 122.639 193.352 122.348 194.427 122.348C196.392 122.348 197.02 123.508 197.02 124.894L197.02 126.945ZM195.235 125.593C194.269 125.582 193.522 125.811 193.522 126.523C193.522 126.993 193.835 127.224 194.246 127.224C194.704 127.224 195.078 126.922 195.199 126.548C195.223 126.445 195.235 126.339 195.235 126.233V125.593ZM199.687 122.482L200.483 125.22C200.621 125.692 200.734 126.171 200.821 126.656H200.856C200.953 126.173 201.05 125.727 201.183 125.22L201.942 122.482H203.873L201.677 128.38H199.844L197.696 122.482H199.687ZM205.95 126.016C206.008 126.775 206.757 127.139 207.613 127.139C208.241 127.139 208.747 127.053 209.242 126.898L209.484 128.141C208.88 128.381 208.144 128.513 207.347 128.513C205.344 128.513 204.198 127.343 204.198 125.497C204.198 124.002 205.128 122.347 207.179 122.347C209.085 122.347 209.809 123.832 209.809 125.291C209.809 125.605 209.772 125.884 209.749 126.016H205.95ZM208.108 124.761C208.108 124.316 207.915 123.567 207.07 123.567C206.299 123.567 205.984 124.267 205.936 124.761H208.108ZM213.344 124.363C213.344 123.627 213.32 123 213.295 122.481H214.84L214.924 123.277H214.961C215.215 122.903 215.734 122.348 216.747 122.348C217.506 122.348 218.11 122.734 218.364 123.349H218.387C218.605 123.035 218.87 122.808 219.147 122.639C219.473 122.444 219.836 122.348 220.27 122.348C221.403 122.348 222.259 123.145 222.259 124.906V128.38H220.475V125.173C220.475 124.316 220.197 123.821 219.607 123.821C219.183 123.821 218.883 124.11 218.761 124.461C218.713 124.593 218.688 124.786 218.688 124.93V128.38H216.903V125.074C216.903 124.328 216.637 123.821 216.059 123.821C215.589 123.821 215.311 124.183 215.202 124.483C215.142 124.628 215.129 124.797 215.129 124.942V128.38H213.344V124.363ZM229.547 125.365C229.547 127.524 228.015 128.514 226.435 128.514C224.71 128.514 223.381 127.38 223.381 125.474C223.381 123.567 224.638 122.348 226.53 122.348C228.34 122.348 229.547 123.592 229.547 125.365ZM225.277 125.425C225.277 126.439 225.699 127.199 226.483 127.199C227.194 127.199 227.653 126.487 227.653 125.425C227.653 124.544 227.315 123.653 226.483 123.653C225.602 123.653 225.277 124.555 225.277 125.425ZM230.681 124.363C230.681 123.627 230.658 123 230.634 122.481H232.226L232.31 123.288H232.346C232.589 122.914 233.191 122.347 234.168 122.347C235.375 122.347 236.28 123.145 236.28 124.881V128.38H234.445V125.112C234.445 124.352 234.179 123.832 233.517 123.832C233.01 123.832 232.709 124.183 232.589 124.52C232.539 124.64 232.516 124.811 232.516 124.979V128.38H230.681V124.363ZM239.163 126.016C239.223 126.775 239.971 127.139 240.829 127.139C241.456 127.139 241.963 127.053 242.456 126.898L242.699 128.141C242.095 128.381 241.359 128.513 240.563 128.513C238.56 128.513 237.413 127.343 237.413 125.497C237.413 124.002 238.343 122.347 240.394 122.347C242.3 122.347 243.023 123.832 243.023 125.291C243.023 125.605 242.989 125.884 242.964 126.016H239.163ZM241.323 124.761C241.323 124.316 241.131 123.567 240.285 123.567C239.513 123.567 239.2 124.267 239.151 124.761H241.323ZM245.425 122.482L246.305 125.378C246.402 125.727 246.523 126.162 246.595 126.475H246.631C246.716 126.162 246.812 125.716 246.897 125.378L247.621 122.482H249.588L248.212 126.366C247.367 128.707 246.801 129.648 246.138 130.238C245.497 130.794 244.822 130.987 244.363 131.046L243.977 129.492C244.207 129.455 244.496 129.347 244.773 129.179C245.051 129.032 245.352 128.743 245.534 128.441C245.594 128.357 245.631 128.262 245.631 128.176C245.631 128.116 245.618 128.02 245.545 127.875L243.387 122.482H245.425ZM251.285 128.513C250.668 128.513 250.223 128.044 250.223 127.403C250.223 126.753 250.668 126.283 251.308 126.283C251.948 126.283 252.383 126.74 252.383 127.403C252.383 128.044 251.948 128.513 251.296 128.513H251.285ZM256.476 120.248H258.322V126.837H261.557V128.38H256.476V120.248ZM264.717 120.84C264.717 121.348 264.331 121.759 263.728 121.759C263.148 121.759 262.763 121.348 262.775 120.84C262.763 120.309 263.148 119.913 263.739 119.913C264.331 119.913 264.705 120.309 264.717 120.84ZM262.822 128.38V122.482H264.657V128.38L262.822 128.38ZM267.733 122.482L268.529 125.22C268.673 125.716 268.783 126.185 268.867 126.656H268.903C268.998 126.173 269.096 125.727 269.23 125.22L269.99 122.482H271.921L269.725 128.38H267.889L265.743 122.482H267.733ZM273.996 126.016C274.057 126.775 274.804 127.139 275.66 127.139C276.289 127.139 276.795 127.053 277.289 126.898L277.53 128.141C276.927 128.381 276.191 128.513 275.396 128.513C273.393 128.513 272.246 127.343 272.246 125.497C272.246 124.002 273.175 122.347 275.227 122.347C277.133 122.347 277.857 123.832 277.857 125.291C277.857 125.605 277.82 125.884 277.794 126.016H273.996ZM276.156 124.761C276.156 124.316 275.963 123.567 275.116 123.567C274.344 123.567 274.032 124.267 273.985 124.761H276.156ZM281.391 119.815H283.225V123.181H283.249C283.6 122.674 284.216 122.348 285.036 122.348C286.447 122.348 287.485 123.519 287.472 125.329C287.472 127.452 286.121 128.513 284.771 128.513C284.084 128.513 283.418 128.263 282.995 127.561H282.971L282.899 128.38H281.343C281.366 127.995 281.391 127.283 281.391 126.62V119.815ZM283.225 125.871C283.225 125.991 283.237 126.101 283.26 126.198C283.381 126.691 283.804 127.066 284.336 127.066C285.12 127.066 285.602 126.463 285.602 125.401C285.602 124.484 285.191 123.761 284.336 123.761C283.84 123.761 283.38 124.133 283.26 124.665C283.236 124.777 283.224 124.891 283.225 125.005V125.871ZM290.055 126.016C290.116 126.775 290.863 127.139 291.719 127.139C292.346 127.139 292.853 127.053 293.348 126.898L293.589 128.141C292.987 128.381 292.249 128.513 291.453 128.513C289.451 128.513 288.305 127.343 288.305 125.497C288.305 124.002 289.235 122.347 291.286 122.347C293.192 122.347 293.915 123.832 293.915 125.291C293.915 125.605 293.879 125.884 293.855 126.016H290.055ZM292.213 124.761C292.213 124.316 292.018 123.567 291.178 123.567C290.405 123.567 290.091 124.267 290.043 124.761H292.213ZM297.304 120.876V122.482H298.621V123.831H297.304V125.968C297.304 126.681 297.474 127.005 298.028 127.005C298.282 127.005 298.392 126.994 298.573 126.957L298.584 128.346C298.343 128.44 297.908 128.513 297.388 128.513C296.798 128.513 296.304 128.298 296.014 127.995C295.676 127.645 295.507 127.078 295.507 126.246V123.831H294.723V122.482H295.507V121.372L297.304 120.876ZM301.975 120.876V122.482H303.288V123.831H301.975V125.968C301.975 126.681 302.144 127.005 302.696 127.005C302.95 127.005 303.059 126.994 303.241 126.957L303.252 128.346C303.011 128.44 302.579 128.513 302.058 128.513C301.468 128.513 300.972 128.298 300.682 127.995C300.346 127.645 300.176 127.078 300.176 126.246V123.831H299.391V122.482H300.176V121.372L301.975 120.876ZM306.003 126.016C306.063 126.775 306.812 127.139 307.671 127.139C308.296 127.139 308.803 127.053 309.297 126.898L309.537 128.141C308.935 128.381 308.201 128.513 307.404 128.513C305.401 128.513 304.255 127.343 304.255 125.497C304.255 124.002 305.184 122.347 307.235 122.347C309.139 122.347 309.866 123.832 309.866 125.291C309.866 125.605 309.829 125.884 309.804 126.016H306.003ZM308.164 124.761C308.164 124.316 307.971 123.567 307.127 123.567C306.353 123.567 306.04 124.267 305.99 124.761H308.164ZM311.202 124.423C311.202 123.554 311.18 122.988 311.157 122.482H312.737L312.798 123.568H312.846C313.147 122.709 313.87 122.347 314.437 122.347C314.605 122.347 314.691 122.347 314.823 122.372V124.11C314.691 124.073 314.533 124.05 314.328 124.05C313.652 124.05 313.195 124.412 313.075 124.979C313.052 125.1 313.039 125.245 313.039 125.39V128.38H311.202L311.202 124.423ZM316.711 128.513C316.095 128.513 315.651 128.044 315.651 127.403C315.651 126.753 316.095 126.283 316.735 126.283C317.374 126.283 317.809 126.74 317.809 127.403C317.809 128.044 317.374 128.513 316.723 128.513H316.711Z" fill="#0071CE"/>
  <path d="M210.586 19L205.394 0.794922H209.113L212.744 14.1377L216.654 0.794922H220.311L224.208 14.1123L227.852 0.794922H231.546L226.366 19H222.367L218.47 5.63184L214.572 19H210.586Z" fill="black"/>
  <path d="M231.432 12.4238C231.432 10.4688 232.062 8.83105 233.323 7.51074C234.584 6.19043 236.171 5.53027 238.084 5.53027C239.04 5.53027 239.929 5.71224 240.75 6.07617C241.571 6.4401 242.248 6.92253 242.781 7.52344C243.314 8.12435 243.729 8.80566 244.025 9.56738C244.33 10.3291 244.482 11.1077 244.482 11.9033C244.482 12.4535 244.423 12.9824 244.305 13.4902H234.936C235.147 14.362 235.57 15.0518 236.205 15.5596C236.84 16.0674 237.631 16.3213 238.579 16.3213C239.866 16.3213 241.029 15.8516 242.07 14.9121L243.937 17.2354C243.251 17.9209 242.438 18.4414 241.499 18.7969C240.56 19.1439 239.552 19.3174 238.478 19.3174C237.03 19.3174 235.765 19 234.682 18.3652C233.598 17.7305 232.786 16.8968 232.244 15.8643C231.702 14.8317 231.432 13.6849 231.432 12.4238ZM238.084 8.36133C237.305 8.36133 236.641 8.58984 236.091 9.04688C235.549 9.50391 235.173 10.126 234.961 10.9131H241.055C240.902 10.1683 240.568 9.55892 240.052 9.08496C239.535 8.60254 238.88 8.36133 238.084 8.36133Z" fill="black"/>
  <path d="M249.662 8.83105H246.971L246.653 0.794922H249.979L249.662 8.83105Z" fill="black"/>
  <path d="M251.846 5.84766H255.54L258.892 15.2803L262.23 5.84766H265.938L260.72 19H257.025L251.846 5.84766Z" fill="black"/>
  <path d="M266.648 12.4238C266.648 10.4688 267.279 8.83105 268.54 7.51074C269.801 6.19043 271.388 5.53027 273.301 5.53027C274.257 5.53027 275.146 5.71224 275.967 6.07617C276.788 6.4401 277.465 6.92253 277.998 7.52344C278.531 8.12435 278.946 8.80566 279.242 9.56738C279.547 10.3291 279.699 11.1077 279.699 11.9033C279.699 12.4535 279.64 12.9824 279.521 13.4902H270.152C270.364 14.362 270.787 15.0518 271.422 15.5596C272.057 16.0674 272.848 16.3213 273.796 16.3213C275.082 16.3213 276.246 15.8516 277.287 14.9121L279.153 17.2354C278.468 17.9209 277.655 18.4414 276.716 18.7969C275.776 19.1439 274.769 19.3174 273.694 19.3174C272.247 19.3174 270.982 19 269.898 18.3652C268.815 17.7305 268.003 16.8968 267.461 15.8643C266.919 14.8317 266.648 13.6849 266.648 12.4238ZM273.301 8.36133C272.522 8.36133 271.858 8.58984 271.308 9.04688C270.766 9.50391 270.389 10.126 270.178 10.9131H276.271C276.119 10.1683 275.785 9.55892 275.269 9.08496C274.752 8.60254 274.096 8.36133 273.301 8.36133Z" fill="black"/>
  <path d="M288.929 0.794922H292.331V7.32031C293.372 6.14388 294.777 5.55566 296.546 5.55566C298.044 5.55566 299.237 6.00846 300.126 6.91406C301.015 7.81966 301.459 9.19499 301.459 11.04V19H298.082V11.5098C298.082 10.5026 297.849 9.76628 297.384 9.30078C296.918 8.83529 296.326 8.60254 295.606 8.60254C294.659 8.60254 293.876 8.95378 293.258 9.65625C292.64 10.3587 292.331 11.1755 292.331 12.1064V19H288.929V0.794922Z" fill="black"/>
  <path d="M310.371 19.3174C309.144 19.3174 308.044 19.0127 307.07 18.4033C306.097 17.7939 305.34 16.9645 304.798 15.915C304.265 14.8656 303.998 13.7018 303.998 12.4238C303.998 10.4688 304.599 8.83105 305.801 7.51074C307.003 6.19043 308.535 5.53027 310.396 5.53027C311.971 5.53027 313.261 6.05924 314.269 7.11719V5.84766H317.646V19H314.269V17.7305C313.261 18.7884 311.962 19.3174 310.371 19.3174ZM313.393 9.65625C312.766 8.93685 311.933 8.57715 310.892 8.57715C309.851 8.57715 309.013 8.93685 308.378 9.65625C307.743 10.3757 307.426 11.2897 307.426 12.3984C307.426 13.5156 307.743 14.4382 308.378 15.166C309.013 15.8854 309.851 16.2451 310.892 16.2451C311.933 16.2451 312.766 15.8854 313.393 15.166C314.027 14.4382 314.345 13.5156 314.345 12.3984C314.345 11.2897 314.027 10.3757 313.393 9.65625Z" fill="black"/>
  <path d="M321.048 5.84766H324.45V7.32031C325.491 6.14388 326.896 5.55566 328.665 5.55566C330.163 5.55566 331.356 6.00846 332.245 6.91406C333.134 7.81966 333.578 9.19499 333.578 11.04V19H330.201V11.5098C330.201 10.5026 329.964 9.76628 329.49 9.30078C329.025 8.83529 328.437 8.60254 327.726 8.60254C326.778 8.60254 325.995 8.95378 325.377 9.65625C324.759 10.3587 324.45 11.1755 324.45 12.1064V19H321.048V5.84766Z" fill="black"/>
  <path d="M342.516 5.53027C344.107 5.53027 345.406 6.05924 346.413 7.11719V0.794922H349.79V19H346.413V17.7051C345.423 18.7799 344.115 19.3174 342.49 19.3174C341.263 19.3174 340.163 19.0127 339.189 18.4033C338.225 17.7939 337.476 16.9688 336.942 15.9277C336.409 14.8783 336.143 13.7103 336.143 12.4238C336.143 11.1458 336.409 9.9821 336.942 8.93262C337.484 7.88314 338.242 7.05371 339.215 6.44434C340.188 5.83496 341.288 5.53027 342.516 5.53027ZM343.036 16.2451C344.069 16.2451 344.902 15.8896 345.537 15.1787C346.172 14.4593 346.489 13.541 346.489 12.4238C346.489 11.3066 346.172 10.3883 345.537 9.66895C344.902 8.94108 344.069 8.57715 343.036 8.57715C341.995 8.57715 341.157 8.93685 340.522 9.65625C339.888 10.3757 339.57 11.2897 339.57 12.3984C339.57 13.5156 339.888 14.4382 340.522 15.166C341.157 15.8854 341.995 16.2451 343.036 16.2451Z" fill="black"/>
  <path d="M353.243 19V0.794922H356.658V19H353.243Z" fill="black"/>
  <path d="M359.426 12.4238C359.426 10.4688 360.056 8.83105 361.317 7.51074C362.578 6.19043 364.165 5.53027 366.078 5.53027C367.035 5.53027 367.923 5.71224 368.744 6.07617C369.565 6.4401 370.242 6.92253 370.775 7.52344C371.309 8.12435 371.723 8.80566 372.02 9.56738C372.324 10.3291 372.477 11.1077 372.477 11.9033C372.477 12.4535 372.417 12.9824 372.299 13.4902H362.93C363.141 14.362 363.564 15.0518 364.199 15.5596C364.834 16.0674 365.625 16.3213 366.573 16.3213C367.86 16.3213 369.023 15.8516 370.064 14.9121L371.931 17.2354C371.245 17.9209 370.433 18.4414 369.493 18.7969C368.554 19.1439 367.547 19.3174 366.472 19.3174C365.024 19.3174 363.759 19 362.676 18.3652C361.592 17.7305 360.78 16.8968 360.238 15.8643C359.697 14.8317 359.426 13.6849 359.426 12.4238ZM366.078 8.36133C365.299 8.36133 364.635 8.58984 364.085 9.04688C363.543 9.50391 363.167 10.126 362.955 10.9131H369.049C368.896 10.1683 368.562 9.55892 368.046 9.08496C367.53 8.60254 366.874 8.36133 366.078 8.36133Z" fill="black"/>
  <path d="M380.83 5.53027C382.421 5.53027 383.72 6.05924 384.728 7.11719V0.794922H388.104V19H384.728V17.7051C383.737 18.7799 382.43 19.3174 380.805 19.3174C379.577 19.3174 378.477 19.0127 377.504 18.4033C376.539 17.7939 375.79 16.9688 375.257 15.9277C374.724 14.8783 374.457 13.7103 374.457 12.4238C374.457 11.1458 374.724 9.9821 375.257 8.93262C375.798 7.88314 376.556 7.05371 377.529 6.44434C378.503 5.83496 379.603 5.53027 380.83 5.53027ZM381.351 16.2451C382.383 16.2451 383.217 15.8896 383.852 15.1787C384.486 14.4593 384.804 13.541 384.804 12.4238C384.804 11.3066 384.486 10.3883 383.852 9.66895C383.217 8.94108 382.383 8.57715 381.351 8.57715C380.31 8.57715 379.472 8.93685 378.837 9.65625C378.202 10.3757 377.885 11.2897 377.885 12.3984C377.885 13.5156 378.202 14.4382 378.837 15.166C379.472 15.8854 380.31 16.2451 381.351 16.2451Z" fill="black"/>
  <path d="M398.273 15.9277C397.681 14.8783 397.385 13.7103 397.385 12.4238C397.385 11.1374 397.681 9.97363 398.273 8.93262C398.866 7.88314 399.687 7.05794 400.736 6.45703C401.786 5.85612 402.958 5.55566 404.253 5.55566C405.776 5.55566 407.105 5.97038 408.239 6.7998C409.373 7.62923 410.165 8.73372 410.613 10.1133L407.414 11.0908C407.16 10.3122 406.745 9.69857 406.17 9.25C405.603 8.80143 404.934 8.57715 404.164 8.57715C403.191 8.57715 402.387 8.94108 401.752 9.66895C401.126 10.3883 400.812 11.3066 400.812 12.4238C400.812 13.5326 401.126 14.4466 401.752 15.166C402.387 15.8854 403.191 16.2451 404.164 16.2451C404.934 16.2451 405.603 16.0208 406.17 15.5723C406.745 15.1237 407.16 14.5228 407.414 13.7695L410.613 14.7598C410.156 16.1309 409.365 17.2311 408.239 18.0605C407.114 18.8815 405.785 19.292 404.253 19.292C402.958 19.292 401.786 18.9915 400.736 18.3906C399.687 17.7897 398.866 16.9688 398.273 15.9277Z" fill="black"/>
  <path d="M419.335 19.292C417.338 19.292 415.679 18.6403 414.358 17.3369C413.047 16.0251 412.391 14.3874 412.391 12.4238C412.391 10.4603 413.047 8.82682 414.358 7.52344C415.679 6.21159 417.338 5.55566 419.335 5.55566C421.307 5.55566 422.945 6.21159 424.248 7.52344C425.56 8.82682 426.216 10.4603 426.216 12.4238C426.216 14.3874 425.56 16.0251 424.248 17.3369C422.945 18.6403 421.307 19.292 419.335 19.292ZM419.335 8.57715C418.294 8.57715 417.448 8.94108 416.796 9.66895C416.144 10.3883 415.818 11.3066 415.818 12.4238C415.818 13.5495 416.14 14.4678 416.783 15.1787C417.435 15.8896 418.285 16.2451 419.335 16.2451C420.368 16.2451 421.201 15.8896 421.836 15.1787C422.471 14.4678 422.788 13.5495 422.788 12.4238C422.788 11.3066 422.471 10.3883 421.836 9.66895C421.201 8.94108 420.368 8.57715 419.335 8.57715Z" fill="black"/>
  <path d="M428.958 5.84766H432.36V7.32031C433.401 6.14388 434.806 5.55566 436.575 5.55566C438.073 5.55566 439.267 6.00846 440.155 6.91406C441.044 7.81966 441.488 9.19499 441.488 11.04V19H438.111V11.5098C438.111 10.5026 437.874 9.76628 437.4 9.30078C436.935 8.83529 436.347 8.60254 435.636 8.60254C434.688 8.60254 433.905 8.95378 433.287 9.65625C432.669 10.3587 432.36 11.1755 432.36 12.1064V19H428.958V5.84766Z" fill="black"/>
  <path d="M443.977 14.8105H447.328C447.328 15.3861 447.574 15.8304 448.064 16.1436C448.564 16.4567 449.254 16.6133 450.134 16.6133C451.573 16.6133 452.292 16.2113 452.292 15.4072C452.292 15.2126 452.241 15.0433 452.14 14.8994C452.038 14.7471 451.915 14.6286 451.771 14.5439C451.628 14.4508 451.416 14.3662 451.137 14.29C450.866 14.2054 450.62 14.1419 450.4 14.0996C450.18 14.0488 449.876 13.9896 449.486 13.9219C449.105 13.8457 448.792 13.778 448.547 13.7188C447.921 13.5749 447.362 13.4056 446.871 13.2109C446.389 13.0078 445.927 12.7454 445.487 12.4238C445.047 12.1022 444.704 11.696 444.459 11.2051C444.222 10.7057 444.104 10.1387 444.104 9.50391C444.104 8.22591 444.573 7.24837 445.513 6.57129C446.461 5.89421 447.751 5.55566 449.385 5.55566C450.519 5.55566 451.518 5.71647 452.381 6.03809C453.253 6.3597 453.951 6.86328 454.476 7.54883C455 8.22591 455.263 9.04264 455.263 9.99902H451.924C451.924 9.43197 451.708 8.99609 451.276 8.69141C450.845 8.38672 450.24 8.23438 449.461 8.23438C448.818 8.23438 448.323 8.34017 447.976 8.55176C447.629 8.75488 447.455 9.05534 447.455 9.45312C447.455 9.61393 447.48 9.75781 447.531 9.88477C447.59 10.0117 447.688 10.126 447.823 10.2275C447.967 10.3291 448.107 10.4137 448.242 10.4814C448.386 10.5492 448.589 10.6211 448.852 10.6973C449.114 10.765 449.347 10.82 449.55 10.8623C449.753 10.9046 450.036 10.9681 450.4 11.0527C450.764 11.1289 451.073 11.1966 451.327 11.2559C451.801 11.3659 452.207 11.4759 452.546 11.5859C452.893 11.696 453.274 11.861 453.688 12.0811C454.103 12.2926 454.442 12.5339 454.704 12.8047C454.966 13.0671 455.187 13.4141 455.364 13.8457C455.55 14.2689 455.644 14.7471 455.644 15.2803C455.644 16.5921 455.148 17.5908 454.158 18.2764C453.176 18.9535 451.827 19.292 450.108 19.292C448.932 19.292 447.891 19.1354 446.985 18.8223C446.088 18.5091 445.36 18.0098 444.802 17.3242C444.252 16.6387 443.977 15.8008 443.977 14.8105Z" fill="black"/>
  <path d="M458.132 5.84766H461.509V13.3379C461.509 14.3451 461.742 15.0814 462.207 15.5469C462.681 16.0124 463.273 16.2451 463.984 16.2451C464.932 16.2451 465.715 15.8939 466.333 15.1914C466.951 14.4805 467.26 13.6595 467.26 12.7285V5.84766H470.662V19H467.26V17.5146C466.21 18.6995 464.805 19.292 463.045 19.292C461.555 19.292 460.362 18.8392 459.465 17.9336C458.576 17.0195 458.132 15.64 458.132 13.7949V5.84766Z" fill="black"/>
  <path d="M473.976 19V5.84766H477.353V7.29492C478.267 6.13542 479.566 5.55566 481.25 5.55566C483.137 5.55566 484.466 6.24967 485.236 7.6377C486.26 6.24967 487.75 5.55566 489.705 5.55566C491.195 5.55566 492.371 5.99154 493.234 6.86328C494.106 7.72656 494.542 9.04264 494.542 10.8115V19H491.14V11.2812C491.14 10.3587 490.92 9.68164 490.479 9.25C490.048 8.81836 489.502 8.60254 488.842 8.60254C488.004 8.60254 487.31 8.92415 486.76 9.56738C486.21 10.2021 485.935 10.9469 485.935 11.8018V19H482.558V11.2812C482.558 10.3587 482.342 9.68164 481.91 9.25C481.487 8.81836 480.95 8.60254 480.298 8.60254C479.452 8.60254 478.749 8.92415 478.19 9.56738C477.632 10.2106 477.353 10.9554 477.353 11.8018V19H473.976Z" fill="black"/>
  <path d="M497.018 12.4238C497.018 10.4688 497.648 8.83105 498.909 7.51074C500.17 6.19043 501.757 5.53027 503.67 5.53027C504.626 5.53027 505.515 5.71224 506.336 6.07617C507.157 6.4401 507.834 6.92253 508.367 7.52344C508.9 8.12435 509.315 8.80566 509.611 9.56738C509.916 10.3291 510.068 11.1077 510.068 11.9033C510.068 12.4535 510.009 12.9824 509.891 13.4902H500.521C500.733 14.362 501.156 15.0518 501.791 15.5596C502.426 16.0674 503.217 16.3213 504.165 16.3213C505.452 16.3213 506.615 15.8516 507.656 14.9121L509.522 17.2354C508.837 17.9209 508.024 18.4414 507.085 18.7969C506.146 19.1439 505.138 19.3174 504.063 19.3174C502.616 19.3174 501.351 19 500.268 18.3652C499.184 17.7305 498.372 16.8968 497.83 15.8643C497.288 14.8317 497.018 13.6849 497.018 12.4238ZM503.67 8.36133C502.891 8.36133 502.227 8.58984 501.677 9.04688C501.135 9.50391 500.758 10.126 500.547 10.9131H506.641C506.488 10.1683 506.154 9.55892 505.638 9.08496C505.121 8.60254 504.465 8.36133 503.67 8.36133Z" fill="black"/>
  <path d="M516.149 19H512.772V5.84766H516.149V9.71973C516.327 9.21191 516.56 8.72949 516.848 8.27246C517.135 7.81543 517.482 7.38379 517.889 6.97754C518.295 6.57129 518.786 6.24121 519.361 5.9873C519.937 5.7334 520.559 5.58952 521.228 5.55566V9.54199C520.364 9.62663 519.552 9.85938 518.79 10.2402C518.028 10.6211 517.398 11.1501 516.898 11.8271C516.399 12.5042 516.149 13.2575 516.149 14.0869V19Z" fill="black"/>
  <path d="M533.593 19H530.216V5.84766H533.593V9.71973C533.771 9.21191 534.003 8.72949 534.291 8.27246C534.579 7.81543 534.926 7.38379 535.332 6.97754C535.738 6.57129 536.229 6.24121 536.805 5.9873C537.38 5.7334 538.002 5.58952 538.671 5.55566V9.54199C537.808 9.62663 536.995 9.85938 536.233 10.2402C535.472 10.6211 534.841 11.1501 534.342 11.8271C533.842 12.5042 533.593 13.2575 533.593 14.0869V19Z" fill="black"/>
  <path d="M540.207 12.4238C540.207 10.4688 540.838 8.83105 542.099 7.51074C543.36 6.19043 544.947 5.53027 546.859 5.53027C547.816 5.53027 548.704 5.71224 549.525 6.07617C550.346 6.4401 551.023 6.92253 551.557 7.52344C552.09 8.12435 552.505 8.80566 552.801 9.56738C553.105 10.3291 553.258 11.1077 553.258 11.9033C553.258 12.4535 553.199 12.9824 553.08 13.4902H543.711C543.923 14.362 544.346 15.0518 544.98 15.5596C545.615 16.0674 546.407 16.3213 547.354 16.3213C548.641 16.3213 549.805 15.8516 550.846 14.9121L552.712 17.2354C552.026 17.9209 551.214 18.4414 550.274 18.7969C549.335 19.1439 548.328 19.3174 547.253 19.3174C545.806 19.3174 544.54 19 543.457 18.3652C542.374 17.7305 541.561 16.8968 541.02 15.8643C540.478 14.8317 540.207 13.6849 540.207 12.4238ZM546.859 8.36133C546.081 8.36133 545.416 8.58984 544.866 9.04688C544.325 9.50391 543.948 10.126 543.736 10.9131H549.83C549.678 10.1683 549.343 9.55892 548.827 9.08496C548.311 8.60254 547.655 8.36133 546.859 8.36133Z" fill="black"/>
  <path d="M554.616 5.84766H556.952V2.40723L560.354 1.29004V5.84766H564.722V8.83105H560.354V14.0869C560.354 15.5088 560.93 16.2197 562.081 16.2197C562.69 16.2197 563.41 15.987 564.239 15.5215L565.356 18.2002C564.214 18.9281 562.949 19.292 561.561 19.292C560.892 19.292 560.291 19.2031 559.758 19.0254C559.233 18.8561 558.751 18.5726 558.311 18.1748C557.879 17.777 557.545 17.2142 557.308 16.4863C557.071 15.7585 556.952 14.8783 556.952 13.8457V8.83105H554.616V5.84766Z" fill="black"/>
  <path d="M566.931 5.84766H570.308V13.3379C570.308 14.3451 570.54 15.0814 571.006 15.5469C571.48 16.0124 572.072 16.2451 572.783 16.2451C573.731 16.2451 574.514 15.8939 575.132 15.1914C575.75 14.4805 576.059 13.6595 576.059 12.7285V5.84766H579.461V19H576.059V17.5146C575.009 18.6995 573.604 19.292 571.844 19.292C570.354 19.292 569.161 18.8392 568.264 17.9336C567.375 17.0195 566.931 15.64 566.931 13.7949V5.84766Z" fill="black"/>
  <path d="M586.278 19H582.901V5.84766H586.278V9.71973C586.456 9.21191 586.689 8.72949 586.977 8.27246C587.264 7.81543 587.611 7.38379 588.018 6.97754C588.424 6.57129 588.915 6.24121 589.49 5.9873C590.066 5.7334 590.688 5.58952 591.356 5.55566V9.54199C590.493 9.62663 589.681 9.85938 588.919 10.2402C588.157 10.6211 587.527 11.1501 587.027 11.8271C586.528 12.5042 586.278 13.2575 586.278 14.0869V19Z" fill="black"/>
  <path d="M593.718 5.84766H597.12V7.32031C598.161 6.14388 599.566 5.55566 601.335 5.55566C602.833 5.55566 604.026 6.00846 604.915 6.91406C605.804 7.81966 606.248 9.19499 606.248 11.04V19H602.871V11.5098C602.871 10.5026 602.634 9.76628 602.16 9.30078C601.695 8.83529 601.106 8.60254 600.396 8.60254C599.448 8.60254 598.665 8.95378 598.047 9.65625C597.429 10.3587 597.12 11.1755 597.12 12.1064V19H593.718V5.84766Z" fill="black"/>
  <path d="M608.736 14.8105H612.088C612.088 15.3861 612.333 15.8304 612.824 16.1436C613.324 16.4567 614.013 16.6133 614.894 16.6133C616.332 16.6133 617.052 16.2113 617.052 15.4072C617.052 15.2126 617.001 15.0433 616.899 14.8994C616.798 14.7471 616.675 14.6286 616.531 14.5439C616.387 14.4508 616.176 14.3662 615.896 14.29C615.626 14.2054 615.38 14.1419 615.16 14.0996C614.94 14.0488 614.635 13.9896 614.246 13.9219C613.865 13.8457 613.552 13.778 613.307 13.7188C612.68 13.5749 612.122 13.4056 611.631 13.2109C611.148 13.0078 610.687 12.7454 610.247 12.4238C609.807 12.1022 609.464 11.696 609.219 11.2051C608.982 10.7057 608.863 10.1387 608.863 9.50391C608.863 8.22591 609.333 7.24837 610.272 6.57129C611.22 5.89421 612.511 5.55566 614.145 5.55566C615.279 5.55566 616.277 5.71647 617.141 6.03809C618.012 6.3597 618.711 6.86328 619.235 7.54883C619.76 8.22591 620.022 9.04264 620.022 9.99902H616.684C616.684 9.43197 616.468 8.99609 616.036 8.69141C615.604 8.38672 614.999 8.23438 614.221 8.23438C613.577 8.23438 613.082 8.34017 612.735 8.55176C612.388 8.75488 612.215 9.05534 612.215 9.45312C612.215 9.61393 612.24 9.75781 612.291 9.88477C612.35 10.0117 612.448 10.126 612.583 10.2275C612.727 10.3291 612.867 10.4137 613.002 10.4814C613.146 10.5492 613.349 10.6211 613.611 10.6973C613.874 10.765 614.106 10.82 614.31 10.8623C614.513 10.9046 614.796 10.9681 615.16 11.0527C615.524 11.1289 615.833 11.1966 616.087 11.2559C616.561 11.3659 616.967 11.4759 617.306 11.5859C617.653 11.696 618.034 11.861 618.448 12.0811C618.863 12.2926 619.201 12.5339 619.464 12.8047C619.726 13.0671 619.946 13.4141 620.124 13.8457C620.31 14.2689 620.403 14.7471 620.403 15.2803C620.403 16.5921 619.908 17.5908 618.918 18.2764C617.936 18.9535 616.586 19.292 614.868 19.292C613.692 19.292 612.651 19.1354 611.745 18.8223C610.848 18.5091 610.12 18.0098 609.562 17.3242C609.011 16.6387 608.736 15.8008 608.736 14.8105Z" fill="black"/>
  <path d="M628.503 8.83105V5.84766H630.864V5.30176C630.864 3.5752 631.275 2.29297 632.096 1.45508C632.925 0.617188 634.034 0.198242 635.422 0.198242C636.454 0.198242 637.432 0.435221 638.354 0.90918L637.682 3.49902C637.072 3.24512 636.543 3.11816 636.095 3.11816C635.511 3.11816 635.058 3.27474 634.736 3.58789C634.415 3.90104 634.254 4.46387 634.254 5.27637V5.84766H638.278V8.83105H634.254V19H630.864V8.83105H628.503Z" fill="black"/>
  <path d="M643.712 19H640.335V5.84766H643.712V9.71973C643.89 9.21191 644.122 8.72949 644.41 8.27246C644.698 7.81543 645.045 7.38379 645.451 6.97754C645.857 6.57129 646.348 6.24121 646.924 5.9873C647.499 5.7334 648.121 5.58952 648.79 5.55566V9.54199C647.927 9.62663 647.114 9.85938 646.353 10.2402C645.591 10.6211 644.96 11.1501 644.461 11.8271C643.962 12.5042 643.712 13.2575 643.712 14.0869V19Z" fill="black"/>
  <path d="M657.271 19.292C655.273 19.292 653.614 18.6403 652.294 17.3369C650.982 16.0251 650.326 14.3874 650.326 12.4238C650.326 10.4603 650.982 8.82682 652.294 7.52344C653.614 6.21159 655.273 5.55566 657.271 5.55566C659.242 5.55566 660.88 6.21159 662.184 7.52344C663.495 8.82682 664.151 10.4603 664.151 12.4238C664.151 14.3874 663.495 16.0251 662.184 17.3369C660.88 18.6403 659.242 19.292 657.271 19.292ZM657.271 8.57715C656.229 8.57715 655.383 8.94108 654.731 9.66895C654.08 10.3883 653.754 11.3066 653.754 12.4238C653.754 13.5495 654.076 14.4678 654.719 15.1787C655.37 15.8896 656.221 16.2451 657.271 16.2451C658.303 16.2451 659.137 15.8896 659.771 15.1787C660.406 14.4678 660.724 13.5495 660.724 12.4238C660.724 11.3066 660.406 10.3883 659.771 9.66895C659.137 8.94108 658.303 8.57715 657.271 8.57715Z" fill="black"/>
  <path d="M666.817 19V5.84766H670.194V7.29492C671.108 6.13542 672.408 5.55566 674.092 5.55566C675.979 5.55566 677.308 6.24967 678.078 7.6377C679.102 6.24967 680.592 5.55566 682.547 5.55566C684.036 5.55566 685.213 5.99154 686.076 6.86328C686.948 7.72656 687.384 9.04264 687.384 10.8115V19H683.981V11.2812C683.981 10.3587 683.761 9.68164 683.321 9.25C682.89 8.81836 682.344 8.60254 681.684 8.60254C680.846 8.60254 680.152 8.92415 679.602 9.56738C679.051 10.2021 678.776 10.9469 678.776 11.8018V19H675.399V11.2812C675.399 10.3587 675.184 9.68164 674.752 9.25C674.329 8.81836 673.791 8.60254 673.14 8.60254C672.293 8.60254 671.591 8.92415 671.032 9.56738C670.474 10.2106 670.194 10.9554 670.194 11.8018V19H666.817Z" fill="black"/>
  <path d="M702.783 19.3174C701.556 19.3174 700.456 19.0127 699.482 18.4033C698.509 17.7939 697.752 16.9645 697.21 15.915C696.677 14.8656 696.41 13.7018 696.41 12.4238C696.41 10.4688 697.011 8.83105 698.213 7.51074C699.415 6.19043 700.947 5.53027 702.809 5.53027C704.383 5.53027 705.674 6.05924 706.681 7.11719V5.84766H710.058V19H706.681V17.7305C705.674 18.7884 704.374 19.3174 702.783 19.3174ZM705.805 9.65625C705.178 8.93685 704.345 8.57715 703.304 8.57715C702.263 8.57715 701.425 8.93685 700.79 9.65625C700.155 10.3757 699.838 11.2897 699.838 12.3984C699.838 13.5156 700.155 14.4382 700.79 15.166C701.425 15.8854 702.263 16.2451 703.304 16.2451C704.345 16.2451 705.178 15.8854 705.805 15.166C706.439 14.4382 706.757 13.5156 706.757 12.3984C706.757 11.2897 706.439 10.3757 705.805 9.65625Z" fill="black"/>
  <path d="M718.602 5.84766H722.296L725.647 15.2803L728.986 5.84766H732.693L727.476 19H723.781L718.602 5.84766Z" fill="black"/>
  <path d="M739.777 19.3174C738.55 19.3174 737.45 19.0127 736.477 18.4033C735.503 17.7939 734.746 16.9645 734.204 15.915C733.671 14.8656 733.404 13.7018 733.404 12.4238C733.404 10.4688 734.005 8.83105 735.207 7.51074C736.409 6.19043 737.941 5.53027 739.803 5.53027C741.377 5.53027 742.668 6.05924 743.675 7.11719V5.84766H747.052V19H743.675V17.7305C742.668 18.7884 741.368 19.3174 739.777 19.3174ZM742.799 9.65625C742.173 8.93685 741.339 8.57715 740.298 8.57715C739.257 8.57715 738.419 8.93685 737.784 9.65625C737.149 10.3757 736.832 11.2897 736.832 12.3984C736.832 13.5156 737.149 14.4382 737.784 15.166C738.419 15.8854 739.257 16.2451 740.298 16.2451C741.339 16.2451 742.173 15.8854 742.799 15.166C743.434 14.4382 743.751 13.5156 743.751 12.3984C743.751 11.2897 743.434 10.3757 742.799 9.65625Z" fill="black"/>
  <path d="M753.882 19H750.505V5.84766H753.882V9.71973C754.06 9.21191 754.292 8.72949 754.58 8.27246C754.868 7.81543 755.215 7.38379 755.621 6.97754C756.027 6.57129 756.518 6.24121 757.094 5.9873C757.669 5.7334 758.291 5.58952 758.96 5.55566V9.54199C758.097 9.62663 757.284 9.85938 756.522 10.2402C755.761 10.6211 755.13 11.1501 754.631 11.8271C754.132 12.5042 753.882 13.2575 753.882 14.0869V19Z" fill="black"/>
  <path d="M761.397 5.84766H764.812V19H761.397V5.84766ZM761.042 2.15332C761.042 1.58626 761.241 1.1123 761.639 0.731445C762.036 0.342122 762.527 0.147461 763.111 0.147461C763.687 0.147461 764.174 0.342122 764.571 0.731445C764.969 1.1123 765.168 1.58626 765.168 2.15332C765.168 2.72038 764.969 3.2028 764.571 3.60059C764.174 3.98991 763.687 4.18457 763.111 4.18457C762.527 4.18457 762.036 3.98991 761.639 3.60059C761.241 3.21126 761.042 2.72884 761.042 2.15332Z" fill="black"/>
  <path d="M767.58 12.4238C767.58 10.4688 768.211 8.83105 769.472 7.51074C770.733 6.19043 772.32 5.53027 774.232 5.53027C775.189 5.53027 776.077 5.71224 776.898 6.07617C777.719 6.4401 778.396 6.92253 778.93 7.52344C779.463 8.12435 779.878 8.80566 780.174 9.56738C780.479 10.3291 780.631 11.1077 780.631 11.9033C780.631 12.4535 780.572 12.9824 780.453 13.4902H771.084C771.296 14.362 771.719 15.0518 772.354 15.5596C772.988 16.0674 773.78 16.3213 774.728 16.3213C776.014 16.3213 777.178 15.8516 778.219 14.9121L780.085 17.2354C779.399 17.9209 778.587 18.4414 777.647 18.7969C776.708 19.1439 775.701 19.3174 774.626 19.3174C773.179 19.3174 771.913 19 770.83 18.3652C769.747 17.7305 768.934 16.8968 768.393 15.8643C767.851 14.8317 767.58 13.6849 767.58 12.4238ZM774.232 8.36133C773.454 8.36133 772.789 8.58984 772.239 9.04688C771.698 9.50391 771.321 10.126 771.109 10.9131H777.203C777.051 10.1683 776.716 9.55892 776.2 9.08496C775.684 8.60254 775.028 8.36133 774.232 8.36133Z" fill="black"/>
  <path d="M781.989 5.84766H784.325V2.40723L787.728 1.29004V5.84766H792.095V8.83105H787.728V14.0869C787.728 15.5088 788.303 16.2197 789.454 16.2197C790.063 16.2197 790.783 15.987 791.612 15.5215L792.729 18.2002C791.587 18.9281 790.322 19.292 788.934 19.292C788.265 19.292 787.664 19.2031 787.131 19.0254C786.606 18.8561 786.124 18.5726 785.684 18.1748C785.252 17.777 784.918 17.2142 784.681 16.4863C784.444 15.7585 784.325 14.8783 784.325 13.8457V8.83105H781.989V5.84766Z" fill="black"/>
  <path d="M793.301 5.84766H796.995L800.245 15.001L803.686 5.84766H807.393L799.991 23.6592H796.271L798.379 18.7461L793.301 5.84766Z" fill="black"/>
  <path d="M822.132 19.292C820.134 19.292 818.476 18.6403 817.155 17.3369C815.843 16.0251 815.188 14.3874 815.188 12.4238C815.188 10.4603 815.843 8.82682 817.155 7.52344C818.476 6.21159 820.134 5.55566 822.132 5.55566C824.104 5.55566 825.742 6.21159 827.045 7.52344C828.357 8.82682 829.013 10.4603 829.013 12.4238C829.013 14.3874 828.357 16.0251 827.045 17.3369C825.742 18.6403 824.104 19.292 822.132 19.292ZM822.132 8.57715C821.091 8.57715 820.244 8.94108 819.593 9.66895C818.941 10.3883 818.615 11.3066 818.615 12.4238C818.615 13.5495 818.937 14.4678 819.58 15.1787C820.232 15.8896 821.082 16.2451 822.132 16.2451C823.164 16.2451 823.998 15.8896 824.633 15.1787C825.268 14.4678 825.585 13.5495 825.585 12.4238C825.585 11.3066 825.268 10.3883 824.633 9.66895C823.998 8.94108 823.164 8.57715 822.132 8.57715Z" fill="black"/>
  <path d="M830.435 8.83105V5.84766H832.796V5.30176C832.796 3.5752 833.206 2.29297 834.027 1.45508C834.857 0.617188 835.966 0.198242 837.354 0.198242C838.386 0.198242 839.364 0.435221 840.286 0.90918L839.613 3.49902C839.004 3.24512 838.475 3.11816 838.026 3.11816C837.442 3.11816 836.99 3.27474 836.668 3.58789C836.346 3.90104 836.186 4.46387 836.186 5.27637V5.84766H840.21V8.83105H836.186V19H832.796V8.83105H830.435Z" fill="black"/>
  <path d="M848.767 19V0.794922H852.169V7.11719C853.176 6.05924 854.479 5.53027 856.079 5.53027C857.306 5.53027 858.402 5.83496 859.367 6.44434C860.341 7.05371 861.09 7.88314 861.614 8.93262C862.147 9.97363 862.414 11.1374 862.414 12.4238C862.414 13.7103 862.147 14.8783 861.614 15.9277C861.09 16.9688 860.341 17.7939 859.367 18.4033C858.402 19.0127 857.306 19.3174 856.079 19.3174C854.479 19.3174 853.176 18.7884 852.169 17.7305V19H848.767ZM852.093 12.4238C852.093 13.5326 852.41 14.4466 853.045 15.166C853.68 15.8854 854.518 16.2451 855.559 16.2451C856.6 16.2451 857.429 15.8854 858.047 15.166C858.673 14.4466 858.986 13.5241 858.986 12.3984C858.986 11.2897 858.673 10.3757 858.047 9.65625C857.421 8.93685 856.591 8.57715 855.559 8.57715C854.518 8.57715 853.68 8.94108 853.045 9.66895C852.41 10.3883 852.093 11.3066 852.093 12.4238Z" fill="black"/>
  <path d="M868.571 19H865.194V5.84766H868.571V9.71973C868.749 9.21191 868.982 8.72949 869.27 8.27246C869.557 7.81543 869.904 7.38379 870.311 6.97754C870.717 6.57129 871.208 6.24121 871.783 5.9873C872.359 5.7334 872.981 5.58952 873.649 5.55566V9.54199C872.786 9.62663 871.974 9.85938 871.212 10.2402C870.45 10.6211 869.82 11.1501 869.32 11.8271C868.821 12.5042 868.571 13.2575 868.571 14.0869V19Z" fill="black"/>
  <path d="M881.609 19.3174C880.382 19.3174 879.282 19.0127 878.309 18.4033C877.335 17.7939 876.578 16.9645 876.036 15.915C875.503 14.8656 875.236 13.7018 875.236 12.4238C875.236 10.4688 875.837 8.83105 877.039 7.51074C878.241 6.19043 879.773 5.53027 881.635 5.53027C883.209 5.53027 884.5 6.05924 885.507 7.11719V5.84766H888.884V19H885.507V17.7305C884.5 18.7884 883.201 19.3174 881.609 19.3174ZM884.631 9.65625C884.005 8.93685 883.171 8.57715 882.13 8.57715C881.089 8.57715 880.251 8.93685 879.616 9.65625C878.981 10.3757 878.664 11.2897 878.664 12.3984C878.664 13.5156 878.981 14.4382 879.616 15.166C880.251 15.8854 881.089 16.2451 882.13 16.2451C883.171 16.2451 884.005 15.8854 884.631 15.166C885.266 14.4382 885.583 13.5156 885.583 12.3984C885.583 11.2897 885.266 10.3757 884.631 9.65625Z" fill="black"/>
  <path d="M892.286 5.84766H895.688V7.32031C896.729 6.14388 898.134 5.55566 899.903 5.55566C901.401 5.55566 902.595 6.00846 903.483 6.91406C904.372 7.81966 904.816 9.19499 904.816 11.04V19H901.439V11.5098C901.439 10.5026 901.202 9.76628 900.729 9.30078C900.263 8.83529 899.675 8.60254 898.964 8.60254C898.016 8.60254 897.233 8.95378 896.615 9.65625C895.997 10.3587 895.688 11.1755 895.688 12.1064V19H892.286V5.84766Z" fill="black"/>
  <path d="M913.754 5.53027C915.345 5.53027 916.644 6.05924 917.651 7.11719V0.794922H921.028V19H917.651V17.7051C916.661 18.7799 915.354 19.3174 913.729 19.3174C912.501 19.3174 911.401 19.0127 910.428 18.4033C909.463 17.7939 908.714 16.9688 908.181 15.9277C907.647 14.8783 907.381 13.7103 907.381 12.4238C907.381 11.1458 907.647 9.9821 908.181 8.93262C908.722 7.88314 909.48 7.05371 910.453 6.44434C911.426 5.83496 912.527 5.53027 913.754 5.53027ZM914.274 16.2451C915.307 16.2451 916.141 15.8896 916.775 15.1787C917.41 14.4593 917.728 13.541 917.728 12.4238C917.728 11.3066 917.41 10.3883 916.775 9.66895C916.141 8.94108 915.307 8.57715 914.274 8.57715C913.233 8.57715 912.396 8.93685 911.761 9.65625C911.126 10.3757 910.809 11.2897 910.809 12.3984C910.809 13.5156 911.126 14.4382 911.761 15.166C912.396 15.8854 913.233 16.2451 914.274 16.2451Z" fill="black"/>
  <path d="M923.656 14.8105H927.008C927.008 15.3861 927.253 15.8304 927.744 16.1436C928.243 16.4567 928.933 16.6133 929.813 16.6133C931.252 16.6133 931.972 16.2113 931.972 15.4072C931.972 15.2126 931.921 15.0433 931.819 14.8994C931.718 14.7471 931.595 14.6286 931.451 14.5439C931.307 14.4508 931.096 14.3662 930.816 14.29C930.546 14.2054 930.3 14.1419 930.08 14.0996C929.86 14.0488 929.555 13.9896 929.166 13.9219C928.785 13.8457 928.472 13.778 928.227 13.7188C927.6 13.5749 927.042 13.4056 926.551 13.2109C926.068 13.0078 925.607 12.7454 925.167 12.4238C924.727 12.1022 924.384 11.696 924.139 11.2051C923.902 10.7057 923.783 10.1387 923.783 9.50391C923.783 8.22591 924.253 7.24837 925.192 6.57129C926.14 5.89421 927.431 5.55566 929.064 5.55566C930.199 5.55566 931.197 5.71647 932.061 6.03809C932.932 6.3597 933.631 6.86328 934.155 7.54883C934.68 8.22591 934.942 9.04264 934.942 9.99902H931.604C931.604 9.43197 931.388 8.99609 930.956 8.69141C930.524 8.38672 929.919 8.23438 929.141 8.23438C928.497 8.23438 928.002 8.34017 927.655 8.55176C927.308 8.75488 927.135 9.05534 927.135 9.45312C927.135 9.61393 927.16 9.75781 927.211 9.88477C927.27 10.0117 927.367 10.126 927.503 10.2275C927.647 10.3291 927.786 10.4137 927.922 10.4814C928.066 10.5492 928.269 10.6211 928.531 10.6973C928.794 10.765 929.026 10.82 929.229 10.8623C929.433 10.9046 929.716 10.9681 930.08 11.0527C930.444 11.1289 930.753 11.1966 931.007 11.2559C931.481 11.3659 931.887 11.4759 932.226 11.5859C932.573 11.696 932.953 11.861 933.368 12.0811C933.783 12.2926 934.121 12.5339 934.384 12.8047C934.646 13.0671 934.866 13.4141 935.044 13.8457C935.23 14.2689 935.323 14.7471 935.323 15.2803C935.323 16.5921 934.828 17.5908 933.838 18.2764C932.856 18.9535 931.506 19.292 929.788 19.292C928.612 19.292 927.571 19.1354 926.665 18.8223C925.768 18.5091 925.04 18.0098 924.481 17.3242C923.931 16.6387 923.656 15.8008 923.656 14.8105Z" fill="black"/>
  <path d="M937.57 17.1846C937.57 16.6006 937.782 16.1097 938.205 15.7119C938.637 15.3057 939.153 15.1025 939.754 15.1025C940.346 15.1025 940.854 15.3057 941.277 15.7119C941.701 16.1182 941.912 16.609 941.912 17.1846C941.912 17.777 941.701 18.2764 941.277 18.6826C940.854 19.0889 940.346 19.292 939.754 19.292C939.153 19.292 938.637 19.0889 938.205 18.6826C937.782 18.2764 937.57 17.777 937.57 17.1846Z" fill="black"/>
  <path d="M34.2761 53.213L3.27003 77.8565L0 115.206L26.4299 145.685L141.889 155.786L150 63.1011L34.5435 53L34.2761 53.213Z" fill="#3B4095"/>
  <path d="M35.0758 54.7699L148.138 64.6628L140.329 153.931L27.2723 144.04C18.7731 134.236 10.273 124.432 1.77222 114.629L4.91447 78.7414L35.0758 54.7699Z" fill="#FFF22D"/>
  <path d="M93.3638 108.271L91.9536 124.401C91.2579 132.356 84.2068 135.385 73.9022 134.483C63.6023 133.582 57.1806 129.377 57.8762 121.422L59.2864 105.292L72.6647 106.461L71.3373 121.649C71.1527 123.784 71.0865 125.672 74.6475 125.984C78.2086 126.296 78.4736 124.425 78.6605 122.29L79.9879 107.102L93.3638 108.271ZM25.706 102.304L41.8574 103.719C49.2492 104.362 56.6813 106.291 56.13 112.585C55.9218 114.972 54.0454 117.175 50.6382 117.641L50.6169 117.859C54.6796 119.271 57.1214 121.671 56.8351 124.924C56.3453 130.532 48.8872 131.812 42.2028 131.225L23.3185 129.571L25.706 102.304ZM38.9139 114.028C40.9393 114.203 43.2297 114.26 43.3954 112.379C43.5728 110.356 40.9795 110.273 38.9517 110.095L37.9911 110.01L37.648 113.917L38.9139 114.028ZM36.7488 124.186L38.32 124.323C40.5962 124.524 43.8899 124.775 44.0863 122.534C44.2874 120.256 40.7382 119.981 38.5116 119.787L37.144 119.669L36.7488 124.186ZM56.9321 74.3191L82.5978 76.5622L81.9495 84.0132L70.2512 82.9886L70.0241 85.5938L80.7072 86.5284L80.0897 93.6174L69.4041 92.6828L69.1699 95.3589L81.2704 96.4166L80.6197 103.868L54.5447 101.587L56.9321 74.3191ZM86.4239 94.5355L87.0982 94.9945C89.4596 96.5869 92.3464 97.9688 95.5383 98.248C96.9036 98.3663 99.1159 98.1604 99.2248 96.93C99.3289 95.702 97.5164 95.4323 96.2671 95.1412L93.5152 94.5355C88.1583 93.3737 83.7998 90.6976 84.1737 86.4314C84.7368 79.9576 93.3094 77.0614 101.612 77.7878C105.966 78.1688 109.898 79.2785 113.502 81.233L109.146 87.8866C106.867 86.5189 104.265 85.3808 101.276 85.1205C100.062 85.0141 98.2617 85.1844 98.1624 86.306C98.0748 87.3187 99.7832 87.6145 100.829 87.8889L103.924 88.6674C109.714 90.1226 113.77 92.7348 113.367 97.3654C112.795 103.875 104.213 106.369 95.9595 105.647C91.1491 105.226 85.662 103.799 81.4975 101.868L86.4239 94.5355ZM114.576 79.3613L143.742 81.9097L142.963 90.7709L135.342 89.8505L133.709 108.51L119.836 107.296L121.469 88.6367L113.803 88.2202L114.576 79.3613ZM22.8358 71.1839L38.9872 72.5965C46.3791 73.2424 53.8135 75.1685 53.2622 81.4625C53.054 83.8499 51.1776 86.0552 47.768 86.5213L47.7514 86.739C51.8094 88.1516 54.2536 90.5509 53.9697 93.8043C53.4775 99.4121 46.0194 100.69 39.3374 100.105L20.4531 98.4515L22.8358 71.1839ZM36.0437 82.9082C38.0668 83.0857 40.3596 83.1401 40.5228 81.259C40.7003 79.2359 38.107 79.1507 36.0816 78.9756L35.1209 78.8905L34.7778 82.797L36.0437 82.9082ZM33.8787 93.0685L35.4474 93.2057C37.7261 93.4045 41.0197 93.6576 41.2161 91.4145C41.4149 89.1335 37.868 88.8614 35.6415 88.665L34.2738 88.5467L33.8787 93.0685Z" fill="#3B4095"/>
  <path fill-rule="evenodd" clip-rule="evenodd" d="M490.038 94.9147V90.8262C490.038 90.207 490.512 89.7899 491.074 89.7899H509.387C509.975 89.7899 510.442 90.2133 510.442 90.8199V94.3207C510.442 94.9084 509.943 95.673 509.065 96.8926L499.58 110.434C503.1 110.352 506.828 110.877 510.025 112.678C510.746 113.082 510.942 113.682 510.998 114.27V118.63C510.998 119.231 510.341 119.926 509.652 119.566C504.016 116.615 496.534 116.292 490.303 119.603C489.665 119.945 489.002 119.256 489.002 118.656V114.51C489.002 113.847 489.014 112.716 489.684 111.705L500.673 95.9384H491.106C490.518 95.9384 490.051 95.5213 490.051 94.9084L490.038 94.9147ZM423.245 120.431H417.671C417.141 120.4 416.717 119.995 416.673 119.49V90.8957C416.673 90.3207 417.16 89.8657 417.754 89.8657H422.942C423.485 89.891 423.921 90.3017 423.953 90.8262V94.5608H424.06C425.412 90.9526 427.959 89.2654 431.39 89.2654C434.821 89.2654 437.058 90.9526 438.619 94.5608C439.972 90.9526 443.036 89.2654 446.316 89.2654C448.654 89.2654 451.207 90.2259 452.761 92.3934C454.531 94.8009 454.164 98.2891 454.164 101.36V119.401C454.164 119.97 453.678 120.431 453.084 120.431H447.517C446.96 120.393 446.518 119.951 446.518 119.408V104.248C446.518 103.047 446.619 100.033 446.36 98.8957C445.943 96.9684 444.698 96.4313 443.087 96.4313C441.735 96.4313 440.332 97.3349 439.757 98.7757C439.182 100.223 439.239 102.624 439.239 104.248V119.401C439.239 119.97 438.758 120.431 438.164 120.431H432.597C432.041 120.393 431.599 119.951 431.599 119.408V104.248C431.599 101.057 432.111 96.3681 428.161 96.3681C424.212 96.3681 424.313 100.943 424.313 104.248V119.401C424.313 119.97 423.833 120.431 423.239 120.431H423.245ZM526.208 89.2654C534.474 89.2654 538.948 96.3681 538.948 105.392C538.948 114.415 534.006 121.038 526.208 121.038C518.411 121.038 513.678 113.935 513.678 105.095C513.678 96.2543 518.152 89.2717 526.208 89.2717V89.2654ZM526.259 95.1043C522.152 95.1043 521.893 100.697 521.893 104.191C521.893 107.686 521.842 115.142 526.208 115.142C530.575 115.142 530.733 109.126 530.733 105.455C530.733 103.047 530.632 100.16 529.899 97.872C529.273 95.8878 528.028 95.1043 526.259 95.1043ZM549.671 120.431H544.123C543.567 120.393 543.125 119.951 543.125 119.408V90.8009C543.163 90.2765 543.624 89.8657 544.186 89.8657H549.355C549.842 89.891 550.24 90.2196 550.348 90.6682V95.0411H550.455C552.016 91.1295 554.196 89.2654 558.044 89.2654C560.54 89.2654 562.986 90.169 564.547 92.6335C566 94.921 566 98.7694 566 101.537V119.528C565.937 120.033 565.482 120.431 564.932 120.431H559.346C558.828 120.4 558.417 120.021 558.354 119.528V104.002C558.354 100.874 558.72 96.2986 554.872 96.2986C553.52 96.2986 552.269 97.2022 551.649 98.5861C550.872 100.33 550.765 102.074 550.765 104.002V119.395C550.752 119.964 550.272 120.425 549.678 120.425L549.671 120.431ZM475.441 106.776C475.441 108.949 475.491 110.757 474.398 112.684C473.513 114.251 472.104 115.218 470.543 115.218C468.408 115.218 467.156 113.588 467.156 111.18C467.156 106.434 471.415 105.575 475.441 105.575V106.782V106.776ZM481.058 120.355C480.692 120.684 480.161 120.709 479.744 120.488C477.893 118.953 477.564 118.239 476.553 116.779C473.494 119.894 471.327 120.829 467.365 120.829C462.676 120.829 459.024 117.935 459.024 112.147C459.024 107.622 461.475 104.551 464.964 103.041C467.984 101.714 472.205 101.474 475.441 101.114V100.393C475.441 99.0664 475.548 97.4992 474.765 96.3554C474.088 95.3317 472.787 94.9084 471.637 94.9084C469.513 94.9084 467.624 95.9953 467.156 98.2512C467.062 98.7504 466.695 99.2496 466.19 99.2749L460.793 98.6935C460.338 98.5924 459.833 98.2259 459.959 97.5308C461.197 90.9779 467.118 89 472.414 89C475.125 89 478.67 89.7204 480.806 91.7741C483.517 94.3081 483.258 97.6825 483.258 101.36V110.036C483.258 112.646 484.344 113.79 485.362 115.199C485.716 115.705 485.798 116.311 485.343 116.678C484.205 117.632 482.183 119.389 481.071 120.381L481.058 120.368V120.355ZM402.411 106.776C402.411 108.949 402.461 110.757 401.368 112.684C400.483 114.251 399.074 115.218 397.513 115.218C395.378 115.218 394.126 113.588 394.126 111.18C394.126 106.434 398.385 105.575 402.411 105.575V106.782V106.776ZM408.028 120.355C407.662 120.684 407.125 120.709 406.714 120.488C404.863 118.953 404.534 118.239 403.523 116.779C400.464 119.894 398.297 120.829 394.341 120.829C389.652 120.829 386 117.935 386 112.147C386 107.622 388.452 104.551 391.94 103.041C394.961 101.714 399.182 101.474 402.417 101.114V100.393C402.417 99.0664 402.518 97.4992 401.741 96.3554C401.065 95.3317 399.763 94.9084 398.613 94.9084C396.49 94.9084 394.6 95.9953 394.133 98.2512C394.038 98.7504 393.671 99.2496 393.166 99.2749L387.769 98.6935C387.314 98.5924 386.809 98.2259 386.935 97.5308C388.174 90.9779 394.088 89 399.39 89C402.101 89 405.646 89.7204 407.782 91.7741C410.493 94.3081 410.234 97.6825 410.234 101.36V110.036C410.234 112.646 411.321 113.79 412.338 115.199C412.692 115.705 412.774 116.311 412.319 116.678C411.182 117.632 409.16 119.389 408.047 120.381L408.035 120.368L408.028 120.355Z" fill="#231F20"/>
  <path d="M742.306 133.422L720.083 72.0406L720.068 72H719.629L706.721 107.577L706.702 107.559C703.814 105.003 699.74 103.405 694.61 102.81L693.045 102.648L694.597 102.448C703.058 100.923 708.745 95.5625 708.745 89.104C708.745 80.2475 700.442 74.0658 688.548 74.0658H663.8V74.5142H670.991V120.277L653.526 72.0405L653.511 72H653.072L630.844 133.264L630.736 133.277C630.434 133.314 630.136 133.344 629.841 133.366C629.397 133.401 628.955 133.422 628.512 133.422H610.677L644.579 74.514L644.831 74.0713H603.368V92.2942H603.808C603.886 83.4181 609.039 74.514 620.423 74.514H634.158L600 133.863H646.018V116.404H645.578C645.518 124.141 641.146 131.489 631.64 133.148L631.337 133.2L638.577 113.237H658.859L666.167 133.422H658.958V133.863H687.253V133.422H680.013V102.974H688.367C696.868 102.974 701.744 106.784 701.744 113.424V118.825C701.744 119.42 701.784 120.29 701.829 121.018V121.044L697.338 133.419H691.473V133.86H703.615V133.419H697.812L701.901 122.15C701.909 122.259 701.914 122.325 701.914 122.325L702.026 123.34L702.135 124.012C702.817 128.167 704.401 131.222 706.842 133.091L707.193 133.346C709.048 134.64 711.352 135.295 714.046 135.295C717.614 135.295 719.994 134.402 721.958 132.302L721.701 132.059C719.891 133.735 718.372 134.414 716.469 134.414C713.226 134.414 711.529 130.468 711.529 126.577V119.009C711.546 117.131 711.253 115.264 710.661 113.482L710.581 113.248V113.239H725.415L732.723 133.425H725.514V133.866H750V133.425L742.306 133.422ZM638.739 112.795L648.73 85.259L658.698 112.795H638.739ZM680.017 102.531V74.514H686.394C694.912 74.514 699.409 79.5938 699.409 89.1991C699.409 99.4146 696.827 102.531 688.367 102.531H680.017ZM710.408 112.795L710.365 112.686C709.705 111.076 708.746 109.606 707.537 108.356L707.119 107.937L707.075 107.896L715.281 85.259L725.249 112.795H710.408Z" fill="black"/>
  <path d="M949.3 76.9276C948.7 74.4276 947.4 71.6609 944.667 71.0942C942.433 70.6276 940.5 71.9609 939.167 73.6276C937.633 75.5609 936.6 77.9276 935.767 80.2276C934.667 83.2942 933.9 86.4942 933.3 89.6942C932.667 92.9942 932.3 96.3276 932.2 99.6609C932.133 101.328 932.133 102.961 932.233 104.628C932.267 105.428 932.367 106.261 932.467 107.061C932.533 107.461 932.6 107.828 932.667 108.228C932.7 108.428 932.734 108.594 932.8 108.794C932.833 108.828 933.034 108.761 933.067 108.761C934.5 108.461 936.034 108.394 937.5 108.494C939.067 108.594 940.534 109.094 941.9 109.861C942.233 110.061 942.567 110.261 942.867 110.461C943.034 110.561 943.2 110.694 943.333 110.794C943.467 110.894 943.6 111.028 943.734 111.128C944.134 110.461 944.5 109.794 944.833 109.094C945.5 107.694 946.034 106.228 946.534 104.761C947.567 101.661 948.367 98.4942 948.933 95.2942C949.5 92.0276 949.867 88.6942 949.967 85.3942C950.067 82.5609 949.967 79.6942 949.3 76.9276ZM938.9 80.1276C939.633 78.8609 940.367 77.6276 941.433 76.5942C942.267 75.7942 943.5 74.9609 944.6 75.7609C945.534 76.4609 946.034 77.7276 946.4 78.7609C946.867 80.1609 947.167 81.6942 947.3 83.1609C944.333 82.4609 941.367 81.7942 938.4 81.1276C938.567 80.8276 938.733 80.4942 938.9 80.1276ZM934.8 93.2942C935.133 91.6942 935.367 90.1276 935.767 88.5276C935.967 87.7276 936.2 86.9609 936.433 86.1942C936.5 86.0276 937.034 84.2276 937.1 84.2609C938.2 84.4942 939.3 84.7609 940.4 84.9942C941.767 85.2942 943.134 85.6276 944.5 85.9276L934.667 94.2609C934.7 93.9276 934.767 93.6276 934.8 93.2942ZM945.167 102.228C944.934 102.961 944.7 103.728 944.4 104.428C944.367 104.494 944.067 105.294 944.034 105.294C944 105.294 944 105.294 943.967 105.294C943.6 105.228 943.2 105.128 942.833 105.061C941.333 104.728 939.8 104.428 938.3 104.094C936.967 103.794 935.6 103.528 934.267 103.228C934.234 102.494 934.233 101.761 934.2 101.028C934.167 100.294 934.267 99.5276 934.267 98.7943C936.634 99.3276 939 99.8609 941.4 100.428C942.767 100.728 944.1 101.061 945.467 101.361C945.367 101.661 945.267 101.928 945.167 102.228ZM947.234 92.3609C947.034 94.2276 946.7 96.0943 946.3 97.9276C943.833 97.3609 941.333 96.8276 938.867 96.2609C938.333 96.1609 937.833 96.0276 937.3 95.9276L947.467 86.7609C947.5 88.6276 947.434 90.4943 947.234 92.3609Z" fill="#0076BD"/>
  <path d="M800.967 105.828C800.967 106.594 801.267 107.261 801.867 107.861C802.5 108.461 803.233 108.761 804.1 108.761H824.167V105.061H808L822.833 76.5609C823.267 75.7609 823.467 74.9942 823.467 74.3609C823.467 72.1942 822.1 71.0942 819.4 71.0942H801.4V79.7275H803.8C803.833 77.7275 804.233 76.4609 804.933 75.7942C805.633 75.1609 806.967 74.8275 808.9 74.8275H816.433L802.067 102.461C801.3 103.894 800.967 104.994 800.967 105.828Z" fill="black"/>
  <path d="M843.1 92.2609C843.1 88.7609 842.467 86.2609 841.267 84.7609C840 83.3276 837.9 82.5609 834.9 82.5609C832.233 82.5609 830.1 83.1609 828.5 84.3942C826.933 85.5943 826.1 87.1943 826.033 89.1943L829.2 92.4609C831.2 92.4609 832.3 91.4943 832.567 89.6609C832.833 87.8276 833 86.8609 833.033 86.7943C833.3 85.8609 833.933 85.4276 834.833 85.4276C835.733 85.4276 836.4 85.9276 836.767 86.9609C837.167 87.9942 837.333 89.6609 837.333 91.9609V94.3609C829.1 94.7943 824.933 97.6276 824.933 102.894C824.933 104.694 825.6 106.228 826.933 107.494C828.267 108.761 829.933 109.394 831.867 109.394C833.1 109.394 834.2 109.094 835.133 108.494C835.2 108.461 835.967 107.828 837.433 106.661C838.167 106.028 839.167 105.728 840.333 105.728H843.067V92.2609H843.1ZM837.333 102.428C836.433 104.394 835.167 105.394 833.5 105.394C831.933 105.394 831.133 104.194 831.133 101.894C831.133 98.9943 833.2 97.4609 837.333 97.1943V102.428Z" fill="black"/>
  <path d="M858.1 82.6275C856.633 82.6275 855.367 83.0609 854.2 83.9609C853.133 84.8942 852.133 85.7942 851.133 86.6942C850.533 87.1275 849.467 87.3275 847.867 87.3275C847.733 87.3275 847.5 87.3275 847.167 87.2942C846.9 87.2942 846.633 87.2942 846.433 87.2942V117.194C846.433 118.061 846.7 118.761 847.267 119.361C847.8 119.994 848.5 120.294 849.3 120.294C850.1 120.294 850.767 119.994 851.3 119.394C851.8 118.794 852.1 118.061 852.1 117.194V107.061C853.467 108.794 855.233 109.694 857.433 109.694C860.333 109.694 862.6 108.494 864.233 106.161C865.833 103.761 866.667 100.394 866.667 96.0609C866.667 91.8609 865.867 88.5609 864.333 86.1942C862.8 83.7609 860.733 82.6275 858.1 82.6275ZM856.3 105.694C853.5 105.694 852.1 103.128 852.1 97.9276V91.7609C853.2 88.2275 854.667 86.4942 856.433 86.4942C859.067 86.4942 860.367 89.6609 860.367 95.8942C860.333 102.428 859 105.694 856.3 105.694Z" fill="black"/>
  <path d="M886.767 106.128C888.367 103.728 889.167 100.361 889.167 96.0275C889.167 91.8275 888.433 88.5275 886.9 86.1609C885.367 83.7609 883.3 82.6275 880.7 82.6275C879.233 82.6275 877.967 83.0609 876.767 83.9609C875.733 84.8942 874.733 85.7942 873.733 86.6942C873.133 87.1275 872.1 87.3275 870.467 87.3275C870.3 87.3275 870.067 87.3275 869.767 87.2942C869.467 87.2942 869.233 87.2942 869.033 87.2942V117.194C869.033 118.061 869.3 118.761 869.867 119.361C870.433 119.994 871.1 120.294 871.867 120.294C872.7 120.294 873.367 119.994 873.867 119.394C874.433 118.794 874.7 118.061 874.7 117.194V107.061C876.067 108.794 877.833 109.694 880.033 109.694C882.9 109.661 885.1 108.494 886.767 106.128ZM874.667 97.9609V91.7942C875.767 88.2609 877.167 86.5275 878.933 86.5275C881.567 86.5275 882.9 89.6942 882.9 95.9276C882.9 102.461 881.567 105.728 878.867 105.728C876.033 105.694 874.667 103.161 874.667 97.9609Z" fill="black"/>
  <path d="M900.667 109.361C907.1 109.361 910.367 104.928 910.367 96.1609C910.367 91.8942 909.5 88.5276 907.767 86.1609C906 83.7276 903.633 82.5276 900.667 82.5276C894.2 82.5276 890.933 87.0942 890.933 96.1609C890.9 104.928 894.167 109.361 900.667 109.361ZM897.5 88.0609C898.133 86.3276 899.2 85.4609 900.667 85.4609C902.6 85.4609 903.833 87.1609 904.367 90.5276C904.567 91.7276 904.667 94.3609 904.667 98.3276C904.667 103.728 903.3 106.428 900.633 106.428C899.1 106.428 898.033 105.561 897.4 103.861C896.833 102.294 896.533 99.7276 896.533 96.1609C896.567 92.4609 896.9 89.7609 897.5 88.0609Z" fill="black"/>
  <path d="M920.6 92.2609C918.4 90.8276 917.3 89.5609 917.3 88.4609C917.3 86.6609 918.333 85.8276 920.4 85.8276C922.833 85.8276 924.067 86.9276 924.067 89.1942H926.1V83.5609C923.8 82.8609 921.967 82.5276 920.733 82.5276C917.933 82.5276 915.833 83.1942 914.333 84.5276C912.8 85.8609 912.067 87.6942 912.067 90.0609C912.067 91.7276 912.533 93.1609 913.467 94.3942C914.267 95.4609 915.633 96.6609 917.533 97.9609C919.467 99.2943 920.6 100.094 920.967 100.461C921.833 101.261 922.267 102.128 922.267 103.094C922.267 104.894 921.133 105.794 918.9 105.794C917.567 105.794 916.1 105.194 914.533 104.061C914.333 104.028 914.067 104.028 913.8 104.028C912.767 104.028 912.267 104.361 912.267 105.094C912.267 106.228 912.967 107.261 914.3 108.061C915.633 108.861 917.367 109.261 919.467 109.261C921.867 109.261 923.8 108.594 925.267 107.161C926.767 105.761 927.5 103.894 927.5 101.628C927.5 99.0276 926.467 96.7276 924.467 94.7942C923 93.8276 921.7 92.9276 920.6 92.2609Z" fill="black"/>
  <path d="M1017.06 90C1012.58 90.0082 1008.95 93.6415 1008.94 98.125V110.887H1011.95V98.125C1011.95 95.3032 1014.24 93.0176 1017.06 93.0217C1019.88 93.0237 1022.17 95.3134 1022.16 98.1352C1022.16 100.839 1020.05 103.069 1017.36 103.23V106.238C1021.84 106.024 1025.29 102.215 1025.08 97.7356C1024.87 93.4396 1021.36 90.0489 1017.06 90Z" fill="#71494F"/>
  <path d="M1000 97.3094H1016.7V118.412H1000V97.3094Z" fill="black"/>
  <path d="M1008.09 118.408C1012.57 118.4 1016.2 114.769 1016.2 110.291V97.5276H1013.2V110.291C1013.2 113.113 1010.9 115.395 1008.08 115.39C1005.26 115.382 1002.98 113.089 1002.98 110.269C1002.99 107.565 1005.1 105.335 1007.8 105.18V102.172C1003.32 102.352 999.827 106.13 1000.01 110.613C1000.18 114.96 1003.75 118.398 1008.1 118.412L1008.09 118.408Z" fill="#71494F"/>
  <path d="M1054.81 109.588C1051.88 109.629 1049.48 107.292 1049.44 104.366C1049.44 104.307 1049.44 104.246 1049.44 104.185C1049.37 101.293 1051.66 98.8957 1054.55 98.8264C1054.62 98.8223 1054.69 98.8223 1054.76 98.8244C1057.69 98.7836 1060.09 101.122 1060.13 104.046C1060.13 104.105 1060.13 104.164 1060.13 104.223C1060.2 107.115 1057.92 109.518 1055.03 109.592C1054.96 109.594 1054.88 109.594 1054.81 109.592V109.588H1054.81ZM1054.81 97.4624C1050.66 97.4624 1047.85 100.61 1047.85 104.223C1047.85 107.838 1050.62 110.95 1054.76 110.95C1058.91 110.95 1061.73 107.802 1061.73 104.189C1061.73 100.576 1058.95 97.4624 1054.81 97.4624ZM1040.37 104.784H1036.99V99.0466H1040.44C1042.63 99.0466 1044.09 100.029 1044.09 101.899C1044.09 103.628 1042.61 104.784 1040.37 104.784ZM1040.55 97.6907H1035.46V110.727H1036.99V106.126H1040.3C1043.2 106.126 1045.65 104.672 1045.65 101.844C1045.65 99.2525 1043.64 97.6907 1040.55 97.6907Z" fill="#231F20"/>
  <path d="M1098.62 104.804L1093.66 97.6908H1092.11V110.727H1093.61V100.182L1098.56 107.151H1098.64L1103.6 100.166V110.727H1105.14V97.6887H1103.58L1098.62 104.804ZM1086.72 103.481H1078.86V97.6887H1077.33V110.727H1078.86V104.857H1086.72V110.727H1088.26V97.6887H1086.72V103.481ZM1069.76 103.5C1066.77 102.882 1066.07 102.189 1066.07 100.947C1066.07 99.7541 1067.2 98.8203 1068.97 98.8203C1070.4 98.8203 1071.79 99.3219 1072.89 100.237L1073.79 99.1037C1072.43 98.017 1070.74 97.4522 1069 97.5032C1066.42 97.5032 1064.53 98.9916 1064.53 101.081C1064.53 103.241 1065.97 104.207 1069.11 104.86C1071.97 105.434 1072.65 106.126 1072.65 107.357C1072.65 108.666 1071.45 109.592 1069.62 109.592C1067.73 109.592 1066.37 108.976 1064.95 107.749L1064 108.827C1065.52 110.197 1067.51 110.944 1069.56 110.913C1072.26 110.913 1074.21 109.461 1074.21 107.204C1074.2 105.194 1072.8 104.132 1069.76 103.5Z" fill="#231F20"/>
  <path d="M342.634 94.6329C343.652 94.6329 344.49 94.1044 344.603 93.4199L345.611 82.0475C345.611 80.9235 344.293 80 342.637 80C340.982 80 339.668 80.9235 339.668 82.0475L340.673 93.4199C340.783 94.1044 341.622 94.6329 342.637 94.6329H342.634ZM336.487 98.1859C336.998 97.3046 336.958 96.3143 336.42 95.8749L327.073 89.3191C326.102 88.7559 324.644 89.4329 323.816 90.8676C322.986 92.2999 323.134 93.9005 324.104 94.4612L334.454 99.2814C335.101 99.5216 335.983 99.0599 336.49 98.1798L336.487 98.1859ZM348.785 98.1796C349.295 99.0598 350.172 99.5215 350.82 99.2813L361.171 94.4611C362.145 93.9004 362.285 92.2997 361.462 90.8675C360.631 89.4328 359.17 88.7557 358.201 89.319L348.854 95.8747C348.319 96.3143 348.28 97.3046 348.788 98.1859L348.785 98.1796ZM342.634 108.838C343.652 108.838 344.49 109.364 344.603 110.048L345.611 121.419C345.611 122.546 344.293 123.467 342.637 123.467C340.982 123.467 339.668 122.546 339.668 121.419L340.673 110.048C340.783 109.364 341.622 108.838 342.637 108.838H342.634ZM348.785 105.286C349.295 104.404 350.172 103.946 350.82 104.189L361.171 109.004C362.145 109.567 362.285 111.168 361.462 112.602C360.631 114.032 359.17 114.711 358.201 114.15L348.854 107.6C348.319 107.154 348.28 106.164 348.788 105.284L348.785 105.286ZM336.487 105.284C336.998 106.165 336.958 107.155 336.42 107.599L327.073 114.15C326.102 114.711 324.644 114.031 323.816 112.601C322.986 111.168 323.134 109.567 324.104 109.003L334.454 104.189C335.101 103.945 335.983 104.404 336.492 105.287L336.487 105.284Z" fill="#FDBB30"/>
  <path d="M288.791 103.042C288.791 98.7473 286.957 94.9694 280.758 94.9694C277.576 94.9694 275.049 95.8632 273.671 96.6592L274.68 100.11C275.939 99.3156 277.948 98.6583 279.848 98.6583C282.993 98.6496 283.508 100.437 283.508 101.583V101.856C276.652 101.845 272.321 104.218 272.321 109.054C272.321 112.006 274.527 114.773 278.363 114.773C280.721 114.773 282.694 113.832 283.875 112.324H283.991C283.991 112.324 284.775 115.6 289.09 114.347C288.864 112.983 288.791 111.53 288.791 109.781L288.791 103.042ZM283.673 107.577C283.673 107.926 283.642 108.288 283.546 108.603C283.15 109.916 281.789 111.026 280.09 111.026C278.671 111.026 277.546 110.221 277.546 108.519C277.546 105.916 280.412 105.196 283.673 105.213V107.577ZM182 89.1217C182 89.1217 186.479 107.474 187.193 110.453C188.027 113.93 189.531 115.21 193.865 114.347L196.661 102.967C197.369 100.141 197.846 98.1259 198.302 95.2516H198.382C198.701 98.1544 199.158 100.15 199.741 102.977C199.741 102.977 200.879 108.143 201.462 110.856C202.048 113.568 203.674 115.277 207.919 114.347L214.582 89.1216H209.202L206.927 100.027C206.316 103.201 205.761 105.682 205.333 108.586H205.257C204.867 105.71 204.373 103.329 203.751 100.236L201.382 89.1216H195.776L193.244 99.9568C192.526 103.248 191.854 105.907 191.427 108.712H191.35C190.913 106.071 190.33 102.73 189.7 99.542C189.7 99.542 188.194 91.7929 187.666 89.1215L182 89.1217ZM229.872 103.042C229.872 98.7473 228.038 94.9694 221.841 94.9694C218.657 94.9694 216.131 95.8632 214.753 96.6592L215.76 100.11C217.022 99.3156 219.028 98.6583 220.929 98.6583C224.075 98.6496 224.59 100.437 224.59 101.583V101.856C217.734 101.845 213.402 104.218 213.402 109.054C213.402 112.006 215.608 114.773 219.441 114.773C221.801 114.773 223.774 113.832 224.958 112.324H225.073C225.073 112.324 225.857 115.6 230.172 114.347C229.945 112.983 229.872 111.53 229.872 109.781L229.872 103.042ZM224.755 107.577C224.755 107.926 224.725 108.288 224.627 108.603C224.231 109.916 222.871 111.026 221.171 111.026C219.754 111.026 218.627 110.221 218.627 108.519C218.627 105.916 221.493 105.196 224.755 105.213L224.755 107.577ZM238.41 89.1218H233.288V114.347H238.41V89.1218ZM305.43 89.1217V107.731C305.43 110.296 305.912 112.093 306.946 113.191C307.848 114.152 309.334 114.773 311.116 114.773C312.63 114.773 314.121 114.486 314.823 114.225L314.757 110.223C314.235 110.35 313.633 110.453 312.811 110.453C311.066 110.453 310.481 109.335 310.481 107.033V99.9135H314.941V95.0871H310.481V89.1217H305.43ZM292.206 95.3967V114.347H297.491V104.644C297.491 104.12 297.522 103.663 297.605 103.245C297.996 101.212 299.551 99.9125 301.783 99.9125C302.394 99.9125 302.832 99.9794 303.308 100.049V95.086C302.909 95.0069 302.638 94.9697 302.143 94.9697C300.171 94.9697 297.928 96.2423 296.986 98.9717H296.842V95.3967H292.206ZM241.998 95.3967V114.347H247.148V103.234C247.148 102.713 247.207 102.162 247.389 101.683C247.816 100.564 248.856 99.2552 250.518 99.2552C252.597 99.2552 253.569 101.012 253.569 103.547V114.347H258.713V103.099C258.713 102.601 258.781 102.003 258.927 101.563C259.351 100.29 260.472 99.2552 262.017 99.2552C264.124 99.2552 265.134 100.981 265.134 103.964V114.347H270.282V103.186C270.282 97.2995 267.294 94.9697 263.92 94.9697C262.426 94.9697 261.247 95.3435 260.18 95.9984C259.284 96.548 258.482 97.3303 257.78 98.3589H257.704C256.89 96.3165 254.976 94.9697 252.482 94.9697C249.277 94.9697 247.836 96.5938 246.962 97.9715H246.887V95.3967H241.998Z" fill="#0071CE"/>
</svg>